# xmcd
#
# Track frame offsets:
#	150
#	27672
#	45596
#	61346
#
# Disc length: 1188 seconds
#
# Revision: 1
# Processed by: cddbd v1.5.2PL0 Copyright (c) Steve Scherf et al.
# Submitted via: audiograbber 1.83.01
#
DISCID=3004a204
DTITLE=Ironbase - Maschine Eisenbass MCD
DYEAR=2002
DGENRE=Alternative
TTITLE0=Maschine Eisenbass (VNV Nation RMX)
TTITLE1=Maschine Eisenbass (Zeromancer Remix)
TTITLE2=Maschine Eisenbass (Radio Edit)
TTITLE3=Maschine Eisenbass (Thee Clubhead Mix)
EXTD=
EXTT0=
EXTT1=
EXTT2=
EXTT3=
PLAYORDER=
